<svg xmlns="http://www.w3.org/2000/svg" viewBox="0 0 624.9 223.78"><defs><style>.cls-1{fill:#fff;}</style></defs><title>Element 1</title><g id="Ebene_2" data-name="Ebene 2"><g id="Ebene_1-2" data-name="Ebene 1"><path class="cls-1" d="M152.43.16h28.68V176.77H152.43Z"/><polygon class="cls-1" points="89.81 0.09 83.45 0.09 0 223.78 6.27 223.78 89.81 0.09"/><polygon class="cls-1" points="181.1 194.45 55.12 194.5 127.06 0.09 95.97 0.18 12.74 223.78 44.28 223.78 44.29 223.78 170.04 223.78 181.1 194.45"/><polygon class="cls-1" points="529.36 0.09 510.56 0.08 499.82 0.07 499.84 176.82 529.35 176.82 529.35 82.1 569.74 194.29 211.93 194.44 200.87 223.78 580.63 223.78 597.53 223.78 612.54 223.78 529.36 0.09"/><polygon class="cls-1" points="535.06 0.09 541.42 0.09 624.9 223.78 618.65 223.78 535.06 0.09"/><polygon class="cls-1" points="469.63 0 350.89 0 340.15 28.33 395.61 28.33 395.63 177.07 424.07 177.07 424.05 28.33 469.63 28.33 469.63 0"/><path class="cls-1" d="M290.8,80.09a64.88,64.88,0,0,0-25.5-5.64c-12.76,0-25-7.6-25-21.82,0-15.94,11.37-24.3,24.87-24.3h44.49L320.32.16h-55C237.59.16,211.6,20,211.6,52.63c0,20.35,10,35.55,27.95,43.89a65.78,65.78,0,0,0,25.75,5.64c11.52.49,25,9.32,25,23.78,0,13.48-11.77,22.06-25,22.06H229.47l-10.9,28.76,46.84-.07h0c27.66,0,53.34-17.94,53.34-50.75C318.75,105.59,308.94,88.42,290.8,80.09Z"/></g></g></svg>